<?xml version="1.0" standalone="no"?><svg xmlns="http://www.w3.org/2000/svg" viewBox="0 0 1440 320"><path fill="#00cba9" fill-opacity="1" d="M0,288L40,277.3C80,267,160,245,240,208C320,171,400,117,480,96C560,75,640,85,720,122.7C800,160,880,224,960,224C1040,224,1120,160,1200,149.3C1280,139,1360,181,1400,202.7L1440,224L1440,320L1400,320C1360,320,1280,320,1200,320C1120,320,1040,320,960,320C880,320,800,320,720,320C640,320,560,320,480,320C400,320,320,320,240,320C160,320,80,320,40,320L0,320Z"></path></svg>